<?xml version="1.0" encoding="UTF-8" standalone="no"?>
<svg
   width="234.178"
   height="57.685"
   class="svg-logo"
   version="1.1"
   id="svg3"
   sodipodi:docname="logo.svg"
   inkscape:version="1.4.3 (0d15f75, 2025-12-25)"
   xmlns:inkscape="http://www.inkscape.org/namespaces/inkscape"
   xmlns:sodipodi="http://sodipodi.sourceforge.net/DTD/sodipodi-0.dtd"
   xmlns="http://www.w3.org/2000/svg"
   xmlns:svg="http://www.w3.org/2000/svg">
  <sodipodi:namedview
     id="namedview3"
     pagecolor="#505050"
     bordercolor="#eeeeee"
     borderopacity="1"
     inkscape:showpageshadow="0"
     inkscape:pageopacity="0"
     inkscape:pagecheckerboard="0"
     inkscape:deskcolor="#505050"
     inkscape:zoom="5.36268"
     inkscape:cx="126.80227"
     inkscape:cy="22.656582"
     inkscape:window-width="1920"
     inkscape:window-height="1009"
     inkscape:window-x="-8"
     inkscape:window-y="-8"
     inkscape:window-maximized="1"
     inkscape:current-layer="g3" />
  <defs
     id="defs1">
    <style
       id="style1">
         .brandname {
            fill: black;
         }

         @media (prefers-color-scheme: dark) {
            .brandname {
               fill: white;
            }
         }
      </style>
  </defs>
  <path
     class="mark"
     d="M26.572.805a1.29 1.29 0 0 0-1.29 1.29v3.739a1.29 1.29 0 0 1-1.292 1.291h-3.738a1.29 1.29 0 0 0-1.291 1.291v3.738a1.29 1.29 0 0 1-1.291 1.291h-3.738a1.29 1.29 0 0 0-1.291 1.291v3.737a1.29 1.29 0 0 1-1.291 1.29H7.61a1.29 1.29 0 0 0-1.29 1.29v3.74a1.29 1.29 0 0 1-1.292 1.291H1.291A1.29 1.29 0 0 0 0 27.373v3.74a1.29 1.29 0 0 0 1.291 1.291h3.738a1.29 1.29 0 0 1 1.291 1.29v3.74a1.29 1.29 0 0 0 1.291 1.29h3.739a1.29 1.29 0 0 1 1.29 1.29v3.74a1.29 1.29 0 0 0 1.292 1.29h3.738a1.29 1.29 0 0 1 1.29 1.29v3.74a1.29 1.29 0 0 0 1.292 1.291h3.738a1.29 1.29 0 0 1 1.291 1.291v3.739a1.29 1.29 0 0 0 1.291 1.29h3.739a1.29 1.29 0 0 0 1.29-1.29v-3.739a1.29 1.29 0 0 1 1.292-1.29h3.738a1.29 1.29 0 0 0 1.29-1.292v-3.74a1.29 1.29 0 0 1 1.292-1.29h3.738a1.29 1.29 0 0 0 1.291-1.29v-3.74a1.29 1.29 0 0 1 1.291-1.29h3.737a1.29 1.29 0 0 0 1.29-1.29v-3.74a1.29 1.29 0 0 1 1.292-1.29h3.738a1.29 1.29 0 0 0 1.29-1.29v-3.741a1.29 1.29 0 0 0-1.29-1.289h-3.738a1.29 1.29 0 0 1-1.291-1.291v-3.74a1.29 1.29 0 0 0-1.291-1.29h-3.737a1.29 1.29 0 0 1-1.29-1.29v-3.737a1.29 1.29 0 0 0-1.292-1.29h-3.738a1.29 1.29 0 0 1-1.291-1.292V8.416a1.29 1.29 0 0 0-1.291-1.291h-3.738a1.29 1.29 0 0 1-1.291-1.291V2.096A1.29 1.29 0 0 0 30.31.805h-3.739zm0 12.64h3.739a1.29 1.29 0 0 1 1.29 1.291v3.737a1.29 1.29 0 0 0 1.292 1.29h3.738a1.29 1.29 0 0 1 1.29 1.29v3.74a1.29 1.29 0 0 0 1.292 1.291h3.738a1.29 1.29 0 0 1 1.291 1.289v3.74a1.29 1.29 0 0 1-1.29 1.291h-3.74a1.29 1.29 0 0 0-1.29 1.29v3.74a1.29 1.29 0 0 1-1.291 1.29h-3.738a1.29 1.29 0 0 0-1.291 1.29v3.74a1.29 1.29 0 0 1-1.291 1.29h-3.739a1.29 1.29 0 0 1-1.29-1.29v-3.74a1.29 1.29 0 0 0-1.292-1.29h-3.738a1.29 1.29 0 0 1-1.291-1.29v-3.74a1.29 1.29 0 0 0-1.291-1.29h-3.738a1.29 1.29 0 0 1-1.291-1.29v-3.741a1.29 1.29 0 0 1 1.29-1.289h3.739a1.29 1.29 0 0 0 1.29-1.291v-3.74a1.29 1.29 0 0 1 1.292-1.29h3.738a1.29 1.29 0 0 0 1.291-1.29v-3.737a1.29 1.29 0 0 1 1.291-1.29zm-.29 12.639a1 1 0 0 0-1 1v4.32a1 1 0 0 0 1 1h4.32a1 1 0 0 0 1-1v-4.32a1 1 0 0 0-1-1h-4.32z"
     style="fill:#d4aa00;fill-rule:evenodd;stroke:none;stroke-width:.377953;stroke-linecap:round;stroke-linejoin:round;paint-order:fill markers stroke;stop-color:#000"
     id="path1" />
  <g
     aria-label="feria artesana"
     class="brandname"
     id="g3">
    <path
       d="m 66.118612,57.386 v -3.92 l -0.373,-0.858 v -7.02 q 0,-1.866 -1.157,-2.911 -1.12,-1.045 -3.472,-1.045 -1.606,0 -3.174,0.522 -1.53,0.486 -2.613,1.344 l -2.09,-4.07 q 1.642,-1.156 3.957,-1.791 2.314,-0.635 4.704,-0.635 4.592,0 7.13,2.166 2.539,2.165 2.539,6.757 v 11.461 z m -6.122,0.299 q -2.352,0 -4.032,-0.784 -1.68,-0.821 -2.576,-2.203 -0.896,-1.381 -0.896,-3.098 0,-1.792 0.858,-3.136 0.896,-1.344 2.8,-2.091 1.904,-0.784 4.966,-0.784 h 5.338 v 3.397 h -4.704 q -2.053,0 -2.837,0.672 -0.747,0.672 -0.747,1.68 0,1.12 0.859,1.792 0.896,0.635 2.427,0.635 1.456,0 2.613,-0.672 1.157,-0.71 1.68,-2.053 l 0.896,2.688 q -0.635,1.94 -2.315,2.949 -1.68,1.008 -4.33,1.008 z m 16.837,-0.299 V 37.301 h 5.563 v 5.675 l -0.784,-1.643 q 0.896,-2.128 2.874,-3.21 1.979,-1.12 4.816,-1.12 v 5.375 q -0.373,-0.037 -0.672,-0.037 -0.298,-0.037 -0.634,-0.037 -2.39,0 -3.883,1.38 -1.456,1.345 -1.456,4.22 v 9.482 z m 24.863998,0.299 q -3.546998,0 -5.524998,-1.792 -1.98,-1.83 -1.98,-5.413 V 32.858 h 5.824998 v 17.547 q 0,1.27 0.672,1.979 0.672,0.672 1.83,0.672 1.38,0 2.351,-0.747 l 1.568,4.107 q -0.896,0.634 -2.165,0.97 -1.232,0.299 -2.576,0.299 z M 91.094612,42.229 v -4.48 h 13.925998 v 4.48 z m 27.962998,15.456 q -3.435,0 -6.048,-1.344 -2.576,-1.344 -3.995,-3.659 -1.418,-2.352 -1.418,-5.338 0,-3.024 1.38,-5.34 1.42,-2.351 3.846,-3.658 2.427,-1.344 5.488,-1.344 2.95,0 5.302,1.27 2.389,1.232 3.77,3.584 1.382,2.314 1.382,5.562 0,0.336 -0.038,0.784 -0.037,0.41 -0.074,0.784 h -16.315 V 45.59 h 13.253 l -2.24,1.008 q 0,-1.568 -0.634,-2.725 -0.635,-1.158 -1.755,-1.792 -1.12,-0.672 -2.613,-0.672 -1.494,0 -2.651,0.672 -1.12,0.634 -1.755,1.829 -0.634,1.157 -0.634,2.763 v 0.896 q 0,1.642 0.709,2.912 0.747,1.232 2.053,1.904 1.344,0.634 3.136,0.634 1.606,0 2.8,-0.485 1.232,-0.485 2.24,-1.456 l 3.099,3.36 q -1.381,1.568 -3.472,2.427 -2.09,0.82 -4.816,0.82 z m 20.347,0 q -2.576,0 -4.966,-0.597 -2.352,-0.635 -3.733,-1.568 l 1.941,-4.182 q 1.382,0.859 3.248,1.419 1.904,0.523 3.734,0.523 2.016,0 2.837,-0.486 0.859,-0.485 0.859,-1.344 0,-0.71 -0.672,-1.045 -0.635,-0.373 -1.718,-0.56 -1.082,-0.187 -2.39,-0.373 -1.268,-0.187 -2.575,-0.486 -1.307,-0.336 -2.39,-0.97 -1.082,-0.635 -1.754,-1.718 -0.635,-1.082 -0.635,-2.8 0,-1.904 1.083,-3.36 1.12,-1.456 3.21,-2.277 2.091,-0.859 5.003,-0.859 2.054,0 4.182,0.448 2.128,0.448 3.546,1.307 l -1.941,4.144 q -1.456,-0.859 -2.95,-1.157 -1.455,-0.336 -2.837,-0.336 -1.941,0 -2.837,0.522 -0.896,0.523 -0.896,1.344 0,0.747 0.635,1.12 0.672,0.374 1.754,0.598 1.083,0.224 2.352,0.41 1.307,0.15 2.614,0.486 1.306,0.336 2.352,0.97 1.082,0.598 1.754,1.68 0.672,1.046 0.672,2.763 0,1.867 -1.12,3.323 -1.12,1.418 -3.248,2.24 -2.09,0.82 -5.114,0.82 z m 25.386,-0.299 v -3.92 l -0.373,-0.858 v -7.02 q 0,-1.866 -1.157,-2.911 -1.12,-1.045 -3.472,-1.045 -1.606,0 -3.174,0.522 -1.53,0.486 -2.613,1.344 l -2.09,-4.07 q 1.642,-1.156 3.957,-1.791 2.314,-0.635 4.704,-0.635 4.592,0 7.13,2.166 2.539,2.165 2.539,6.757 v 11.461 z m -6.122,0.299 q -2.352,0 -4.032,-0.784 -1.68,-0.821 -2.576,-2.203 -0.896,-1.381 -0.896,-3.098 0,-1.792 0.858,-3.136 0.896,-1.344 2.8,-2.091 1.904,-0.784 4.966,-0.784 h 5.338 v 3.397 h -4.704 q -2.053,0 -2.837,0.672 -0.747,0.672 -0.747,1.68 0,1.12 0.859,1.792 0.896,0.635 2.427,0.635 1.456,0 2.613,-0.672 1.157,-0.71 1.68,-2.053 l 0.896,2.688 q -0.635,1.94 -2.315,2.949 -1.68,1.008 -4.33,1.008 z m 29.045,-20.683 q 2.39,0 4.256,0.97 1.904,0.934 2.987,2.913 1.082,1.941 1.082,5.003 v 11.498 h -5.824 V 46.784 q 0,-2.427 -1.082,-3.584 -1.046,-1.158 -2.987,-1.158 -1.381,0 -2.501,0.598 -1.083,0.56 -1.718,1.754 -0.597,1.195 -0.597,3.062 v 9.93 h -5.824 V 37.301 h 5.563 v 5.563 l -1.046,-1.68 q 1.083,-2.016 3.099,-3.1 2.016,-1.082 4.592,-1.082 z m 25.909,20.384 v -3.92 l -0.373,-0.858 v -7.02 q 0,-1.866 -1.158,-2.911 -1.12,-1.045 -3.472,-1.045 -1.605,0 -3.173,0.522 -1.53,0.486 -2.613,1.344 l -2.09,-4.07 q 1.642,-1.156 3.957,-1.791 2.314,-0.635 4.703,-0.635 4.592,0 7.131,2.166 2.539,2.165 2.539,6.757 v 11.461 z m -6.123,0.299 q -2.351,0 -4.031,-0.784 -1.68,-0.821 -2.576,-2.203 -0.896,-1.381 -0.896,-3.098 0,-1.792 0.858,-3.136 0.896,-1.344 2.8,-2.091 1.904,-0.784 4.966,-0.784 h 5.338 v 3.397 h -4.704 q -2.053,0 -2.837,0.672 -0.747,0.672 -0.747,1.68 0,1.12 0.859,1.792 0.896,0.635 2.427,0.635 1.455,0 2.613,-0.672 1.157,-0.71 1.68,-2.053 l 0.896,2.688 q -0.635,1.94 -2.315,2.949 -1.68,1.008 -4.33,1.008 z"
       id="path2"
       style="display:inline"
       inkscape:label="path2" />
    <path
       d="M70.117 29.381V8.848q0-3.397 2.016-5.413 2.016-2.054 5.749-2.054 1.27 0 2.427.262 1.194.261 2.016.821l-1.531 4.219q-.485-.336-1.083-.523-.597-.187-1.269-.187-1.27 0-1.979.747-.672.71-.672 2.165v1.867l.15 2.501v16.128Zm-3.099-15.157v-4.48h13.925v4.48zM93.562 29.68q-3.435 0-6.048-1.344-2.576-1.344-3.995-3.659-1.418-2.352-1.418-5.338 0-3.024 1.38-5.339 1.42-2.352 3.846-3.659 2.427-1.344 5.488-1.344 2.95 0 5.302 1.27 2.389 1.232 3.77 3.584 1.382 2.314 1.382 5.562 0 .336-.038.784-.037.411-.074.784H86.842v-3.397h13.253l-2.24 1.008q0-1.568-.634-2.725-.635-1.158-1.755-1.792-1.12-.672-2.613-.672-1.494 0-2.651.672-1.12.634-1.755 1.829-.634 1.157-.634 2.763v.896q0 1.642.709 2.912.747 1.232 2.053 1.904 1.344.634 3.136.634 1.606 0 2.8-.485 1.232-.485 2.24-1.456l3.099 3.36q-1.381 1.568-3.472 2.427-2.09.821-4.816.821zM107.151 29.381V9.296h5.563v5.675l-.784-1.643q.896-2.128 2.875-3.21 1.978-1.12 4.816-1.12v5.375q-.374-.037-.672-.037-.3-.037-.635-.037-2.39 0-3.883 1.381-1.456 1.344-1.456 4.219v9.482zM123.093 29.381V9.296h5.824v20.085Zm2.912-22.885q-1.606 0-2.614-.933-1.008-.934-1.008-2.315 0-1.381 1.008-2.315Q124.4 0 126.005 0q1.605 0 2.613.896 1.008.859 1.008 2.24 0 1.456-1.008 2.427-.97.933-2.613.933zM146.65 29.381v-3.92l-.373-.858v-7.019q0-1.867-1.158-2.912-1.12-1.045-3.472-1.045-1.605 0-3.173.522-1.53.486-2.613 1.344l-2.091-4.069q1.643-1.157 3.957-1.792 2.315-.635 4.704-.635 4.592 0 7.13 2.166 2.54 2.165 2.54 6.757v11.461zm-6.123.299q-2.352 0-4.032-.784-1.68-.821-2.576-2.203-.896-1.381-.896-3.098 0-1.792.859-3.136.896-1.344 2.8-2.091 1.904-.784 4.965-.784h5.339v3.397h-4.704q-2.053 0-2.837.672-.747.672-.747 1.68 0 1.12.859 1.792.896.635 2.426.635 1.456 0 2.614-.672 1.157-.71 1.68-2.053l.896 2.688q-.635 1.941-2.315 2.949-1.68 1.008-4.33 1.008z"
       id="path3" />
    <text
       xml:space="preserve"
       style="font-style:normal;font-variant:normal;font-weight:normal;font-stretch:normal;font-size:47.1183px;font-family:sans-serif;-inkscape-font-specification:sans-serif;writing-mode:lr-tb;direction:ltr;fill:#ffffff;stroke-width:3.92654"
       x="170.96385"
       y="74.294212"
       id="text4"
       transform="scale(1.2893723,0.7755712)"><tspan
         sodipodi:role="line"
         id="tspan4"
         x="170.96385"
         y="74.294212"
         style="fill:#ffffff;stroke-width:3.92654">l</tspan></text>
  </g>
</svg>
