<?xml version="1.0" encoding="UTF-8" standalone="no"?>
<svg
   id="svg8"
   version="1.1"
   viewBox="0 0 56.88086 56.88086"
   height="56.880859"
   width="56.880859"
   xmlns="http://www.w3.org/2000/svg"
   xmlns:svg="http://www.w3.org/2000/svg"
   xmlns:rdf="http://www.w3.org/1999/02/22-rdf-syntax-ns#"
   xmlns:cc="http://creativecommons.org/ns#"
   xmlns:dc="http://purl.org/dc/elements/1.1/">
  <defs
     id="defs2" />
  <metadata
     id="metadata5">
    <rdf:RDF>
      <cc:Work
         rdf:about="">
        <dc:format>image/svg+xml</dc:format>
        <dc:type
           rdf:resource="http://purl.org/dc/dcmitype/StillImage" />
      </cc:Work>
    </rdf:RDF>
  </metadata>
  <path
     id="rect29154"
     style="fill:#d4aa00;fill-rule:evenodd;stroke:none;stroke-width:0.377953;stroke-linecap:round;stroke-linejoin:round;paint-order:fill markers stroke;stop-color:#000000"
     d="M 26.572266,0 A 1.2907935,1.2907935 0 0 0 25.28125,1.2910156 V 5.0292969 A 1.2907935,1.2907935 0 0 1 23.990234,6.3203125 H 20.251953 A 1.2907935,1.2907935 0 0 0 18.960938,7.6113281 V 11.34961 a 1.2907935,1.2907935 0 0 1 -1.291016,1.291015 h -3.738281 a 1.2907935,1.2907935 0 0 0 -1.291016,1.291016 v 3.736328 a 1.2907935,1.2907935 0 0 1 -1.291016,1.291016 H 7.6113281 a 1.2907935,1.2907935 0 0 0 -1.2910156,1.289062 v 3.740235 A 1.2907935,1.2907935 0 0 1 5.0292969,25.279297 H 1.2910156 A 1.2907935,1.2907935 0 0 0 1.9179968e-8,26.56836 v 3.740234 A 1.2907935,1.2907935 0 0 0 1.2910156,31.59961 h 3.7382813 a 1.2907935,1.2907935 0 0 1 1.2910156,1.289062 v 3.740235 a 1.2907935,1.2907935 0 0 0 1.2910156,1.291015 h 3.7382809 a 1.2907935,1.2907935 0 0 1 1.291016,1.289063 v 3.740234 a 1.2907935,1.2907935 0 0 0 1.291016,1.291016 h 3.738281 a 1.2907935,1.2907935 0 0 1 1.291016,1.289062 v 3.740235 a 1.2907935,1.2907935 0 0 0 1.291015,1.291015 h 3.738281 a 1.2907935,1.2907935 0 0 1 1.291016,1.291016 v 3.738281 a 1.2907935,1.2907935 0 0 0 1.291016,1.291016 h 3.738281 a 1.2907935,1.2907935 0 0 0 1.291015,-1.291016 v -3.738281 a 1.2907935,1.2907935 0 0 1 1.291016,-1.291016 h 3.738281 a 1.2907935,1.2907935 0 0 0 1.291016,-1.291015 v -3.740235 a 1.2907935,1.2907935 0 0 1 1.291016,-1.289062 h 3.738281 a 1.2907935,1.2907935 0 0 0 1.291016,-1.291016 v -3.740234 a 1.2907935,1.2907935 0 0 1 1.291015,-1.289063 h 3.736328 a 1.2907935,1.2907935 0 0 0 1.291016,-1.291015 v -3.740235 a 1.2907935,1.2907935 0 0 1 1.291015,-1.289062 h 3.738282 a 1.2907935,1.2907935 0 0 0 1.291015,-1.291016 V 26.56836 A 1.2907935,1.2907935 0 0 0 55.589844,25.279297 H 51.851562 A 1.2907935,1.2907935 0 0 1 50.560547,23.988282 V 20.248047 A 1.2907935,1.2907935 0 0 0 49.269531,18.958985 H 45.533203 A 1.2907935,1.2907935 0 0 1 44.242188,17.667969 V 13.931641 A 1.2907935,1.2907935 0 0 0 42.951172,12.640625 H 39.212891 A 1.2907935,1.2907935 0 0 1 37.921875,11.34961 V 7.6113281 A 1.2907935,1.2907935 0 0 0 36.630859,6.3203125 H 32.892578 A 1.2907935,1.2907935 0 0 1 31.601562,5.0292969 V 1.2910156 A 1.2907935,1.2907935 0 0 0 30.310547,0 Z m 0,12.640625 h 3.738281 a 1.2907935,1.2907935 0 0 1 1.291015,1.291016 v 3.736328 a 1.2907935,1.2907935 0 0 0 1.291016,1.291016 h 3.738281 a 1.2907935,1.2907935 0 0 1 1.291016,1.289062 v 3.740235 a 1.2907935,1.2907935 0 0 0 1.291016,1.291015 h 3.738281 a 1.2907935,1.2907935 0 0 1 1.291016,1.289063 v 3.740234 a 1.2907935,1.2907935 0 0 1 -1.291016,1.291016 h -3.738281 a 1.2907935,1.2907935 0 0 0 -1.291016,1.289062 v 3.740235 a 1.2907935,1.2907935 0 0 1 -1.291016,1.291015 h -3.738281 a 1.2907935,1.2907935 0 0 0 -1.291016,1.289063 v 3.740234 a 1.2907935,1.2907935 0 0 1 -1.291015,1.291016 H 26.572266 A 1.2907935,1.2907935 0 0 1 25.28125,42.949219 V 39.208985 A 1.2907935,1.2907935 0 0 0 23.990234,37.919922 H 20.251953 A 1.2907935,1.2907935 0 0 1 18.960938,36.628907 V 32.888672 A 1.2907935,1.2907935 0 0 0 17.669922,31.59961 H 13.931641 A 1.2907935,1.2907935 0 0 1 12.640625,30.308594 V 26.56836 a 1.2907935,1.2907935 0 0 1 1.291016,-1.289063 h 3.738281 a 1.2907935,1.2907935 0 0 0 1.291016,-1.291015 v -3.740235 a 1.2907935,1.2907935 0 0 1 1.291015,-1.289062 h 3.738281 a 1.2907935,1.2907935 0 0 0 1.291016,-1.291016 v -3.736328 a 1.2907935,1.2907935 0 0 1 1.291016,-1.291016 z M 26.28125,25.279297 a 1,1 0 0 0 -1,1 v 4.320313 a 1,1 0 0 0 1,1 h 4.320312 a 1,1 0 0 0 1,-1 v -4.320313 a 1,1 0 0 0 -1,-1 z" />
</svg>
